<svg width="800" height="791" version="1.1" xmlns="http://www.w3.org/2000/svg" desc="Created with imagetracer.js version 1.2.6" ><path fill="rgb(0,0,0)" stroke="rgb(0,0,0)" stroke-width="1" opacity="0" d="M 0 0 L 66.5 0 L 67 1.5 L 66 3.5 L 67 4.5 L 67 18.5 Q 64.8 19.8 66 24.5 L 67 27 L 93.5 27 L 102 29 L 102.5 31 L 103.5 30 L 108.5 35 L 111 36.5 L 115 42.5 L 118 54.5 L 118 97.5 L 117 100.5 Q 119.7 102.3 118 108.5 L 117 109.5 L 117 191.5 L 118 193.5 L 117 195.5 L 118 196.5 L 118 275.5 L 115.5 278 L 67.5 278 L 66 276.5 L 66 240.5 L 65 239.5 L 66 237.5 L 65 234 L 42.5 234 L 41 235.5 L 41 304.5 L 41.5 305 L 365.5 305 L 366.5 306 L 424.5 306 L 425.5 305 L 455.5 305 L 457.5 305 L 460.5 306 L 486.5 306 L 487.5 305 L 527.5 305 L 532.5 306 L 533.5 305 L 585.5 305 L 586.5 306 L 604.5 306 L 609.5 305 L 610.5 306 L 630.5 306 L 631.5 305 L 763 305 L 763 235.5 L 761.5 234 L 742.5 234 L 738 236.5 L 738 275.5 L 739 276.5 L 737.5 278 L 687.5 278 L 686 276.5 L 686 51.5 L 690 43.5 L 689.5 42 Q 691.8 42.8 691 40.5 L 696.5 34 L 702.5 30 L 707.5 28 L 728.5 28 L 729.5 27 L 733.5 28 L 739 27 L 739 1.5 L 738 0.5 L 800 0 L 799.5 465 L 785 452.5 L 745 394.5 L 756.5 381 L 766 372.5 L 768 368 L 773 364.5 Q 772.3 362.3 774.5 363 Q 782.2 354.2 794 349.5 Q 795.7 341.7 791.5 340 Q 783.3 338.3 779.5 341 L 778.5 340 L 749.5 340 L 746 342.5 L 745 346.5 L 746 351 L 752 354 L 752 357.5 L 742 367.5 L 742 369 Q 739.3 367.9 740 370.5 L 709.5 401 L 708 401 L 708 358.5 L 712.5 354 L 720 348.5 Q 721.3 342.3 717.5 341 L 670.5 341 L 669 342.5 L 668 348.5 L 678 357.5 L 679 359.5 L 679 454.5 L 671.5 463 L 667 466.5 Q 665.8 472.6 668.5 472 L 669.5 473 L 717.5 473 Q 720.3 471.8 719 466.5 L 716.5 463 L 709 457.5 L 707 451.5 L 707 432.5 L 708 429 L 711.5 428 L 725.5 414 L 733 422.5 Q 741.8 440.7 754 455.5 L 754 459.5 Q 749.3 461.8 748 467.5 L 749 472 Q 752.3 474.1 760.5 473 L 761.5 472 L 800 472 L 800 790.5 L 799.5 791 L 739 791 L 740 786.5 L 739 783.5 L 739 764.5 L 737.5 763 L 710.5 763 L 701.5 759 L 693 751.5 L 688 742.5 L 686 735.5 L 686 535.5 L 687.5 534 L 737 534 L 738 536.5 L 738 573.5 L 740.5 576 L 761.5 576 L 763 574.5 L 763 507.5 L 762.5 507 L 41 507 L 40 509.5 L 40 574.5 L 41.5 576 L 64.5 576 L 66 574.5 L 66 535.5 L 67.5 534 L 115.5 534 L 117 535.5 L 117 739.5 Q 115.8 747.3 111.5 752 Q 109.3 751.3 110 753.5 L 102 759 Q 103.1 761.7 100.5 761 L 95.5 763 L 67.5 763 L 66 764.5 L 66 789.5 L 67 790.5 L 0 791 L 0 473.5 L 0.5 473 L 50.5 473 L 51 471.5 L 53 467.5 L 51 464 L 42 457.5 L 41 455.5 L 41 417.5 L 42.5 416 L 93.5 416 L 96 418.5 L 96 455.5 L 90.5 462 L 85 466.5 Q 84.3 472.8 85.5 473 L 136 473 L 137 466.5 L 136 464 Q 129.2 463 126 456.5 L 124 451.5 L 124 360.5 L 129.5 354 L 136 349.5 Q 137.8 342.8 134.5 341 L 87.5 341 L 85 343.5 Q 83.5 349.5 86.5 351 L 96 359.5 L 96 394.5 L 94.5 395 L 92.5 396 L 87.5 395 L 85.5 395 L 42.5 395 L 41 393.5 L 40 360.5 L 44.5 355 L 47 353.5 L 48.5 351 L 51 350.5 L 51 342.5 L 47.5 341 L 19.5 341 L 18.5 342 L 2.5 342 L 1 343.5 L 0.5 345 L 0 0 Z M 575 339 L 558 342 L 543 349 L 536 354 L 521 372 L 515 388 L 514 400 L 513 401 L 513 411 L 514 412 L 514 420 L 516 429 Q 520 442 528 451 Q 538 461 552 468 L 564 472 L 577 473 L 578 474 L 596 473 L 604 471 L 612 468 L 627 458 L 641 442 L 649 421 L 648 417 L 650 414 L 649 394 L 644 380 L 635 365 L 622 352 L 602 342 L 587 339 L 575 339 Z M 399 340 L 398 341 L 304 341 L 301 344 Q 300 348 302 350 Q 301 352 304 351 L 311 360 L 311 455 L 310 457 Q 306 462 300 464 L 299 467 Q 298 472 301 473 L 352 473 Q 353 473 352 467 L 345 461 L 339 454 L 339 422 L 341 420 L 379 420 L 380 423 Q 382 426 390 425 L 391 424 L 391 394 Q 389 390 383 392 L 379 398 L 341 398 L 339 397 L 339 363 L 341 361 L 386 361 L 388 362 L 390 369 L 394 371 Q 401 373 402 369 L 402 345 L 399 340 Z M 422 340 L 420 342 L 420 366 Q 422 368 427 367 L 428 363 L 434 361 L 459 361 L 461 364 L 461 434 L 458 445 Q 455 451 447 452 Q 434 454 428 449 Q 421 445 418 437 Q 417 433 413 434 L 404 456 L 405 460 L 422 470 L 437 474 L 459 473 L 474 466 L 482 458 L 486 450 L 488 440 L 488 360 L 489 358 L 496 351 L 498 351 Q 501 349 499 343 L 498 341 L 471 341 L 470 340 L 422 340 Z M 154 341 L 153 344 L 154 352 Q 160 354 162 362 L 162 426 L 163 431 L 170 448 L 177 458 L 195 470 L 214 474 L 227 474 L 238 472 L 248 468 L 256 462 L 265 450 L 269 435 L 269 361 L 270 359 L 282 349 L 281 344 L 281 341 L 241 341 L 239 343 L 239 351 Q 246 353 250 360 L 250 429 Q 249 437 244 442 Q 238 449 227 451 L 214 451 L 204 447 Q 196 441 192 432 L 192 359 L 203 350 Q 205 344 202 343 L 202 341 L 154 341 Z " /><path fill="rgb(0,0,0)" stroke="rgb(0,0,0)" stroke-width="1" opacity="0" d="M 290.5 0 L 514 0.5 L 513 1.5 L 513 27 L 516.5 28 L 542.5 28 Q 552.4 31.1 558 38.5 L 562 46.5 L 564 57.5 L 564 278 L 241.5 278 L 241 276.5 L 240 275.5 L 240 50.5 L 244 38.5 L 250.5 32 L 259.5 28 L 289.5 28 L 291 26.5 L 291 1.5 L 290.5 0 Z M 288 67 L 265 73 L 250 75 L 245 78 L 251 109 L 254 115 L 257 131 L 265 160 L 266 169 L 270 179 L 274 200 L 276 204 L 276 208 L 282 230 Q 280 234 284 233 L 283 235 L 291 266 L 297 266 L 328 257 L 332 257 L 336 255 L 336 248 L 332 234 L 329 216 Q 325 214 328 213 L 326 211 L 321 184 L 317 171 L 317 166 Q 314 158 313 149 L 311 147 L 307 125 L 302 107 L 302 102 L 298 88 Q 300 82 297 83 L 297 82 L 293 70 L 293 67 L 288 67 Z M 509 68 L 507 70 L 507 269 L 508 269 L 553 269 L 554 267 L 554 114 L 553 113 L 553 103 L 554 102 L 554 71 L 553 70 L 553 68 L 509 68 Z M 454 70 L 450 76 L 448 85 L 446 88 L 439 116 L 434 127 L 422 170 L 419 175 L 410 208 L 408 211 L 406 221 L 402 229 Q 401 238 397 246 L 397 251 L 404 254 L 407 254 L 432 266 L 441 268 L 448 249 L 457 215 L 464 198 L 473 166 Q 476 164 474 163 L 477 158 L 489 119 L 491 117 L 494 108 L 494 105 L 499 92 L 499 87 L 472 76 L 469 76 L 465 73 L 454 70 Z " /><path fill="rgb(0,0,0)" stroke="rgb(0,0,0)" stroke-width="1" opacity="0" d="M 290.5 93 Q 292.8 92.3 292 94.5 L 294 101.5 L 290.5 104 Q 273.5 105.8 260 110 L 258 101 L 263.5 99 L 268.5 99 L 286.5 95 L 290.5 93 Z " /><path fill="rgb(0,0,0)" stroke="rgb(0,0,0)" stroke-width="1" opacity="0" d="M 515.5 95 L 545.5 95 L 547 96.5 L 547 104.5 L 545.5 106 L 515 105 Q 513.3 102.6 514 96.5 L 515.5 95 Z " /><path fill="rgb(0,0,0)" stroke="rgb(0,0,0)" stroke-width="1" opacity="0" d="M 453.5 96 L 460.5 98 L 462.5 100 L 483.5 106 L 486 108.5 Q 485.8 114.3 482.5 117 Q 472 116 465.5 111 L 463.5 111 L 452.5 108 L 450 105.5 Q 448.9 97.9 453.5 96 Z " /><path fill="rgb(0,0,0)" stroke="rgb(0,0,0)" stroke-width="1" opacity="0" d="M 293.5 114 L 296 115.5 L 297 122.5 L 291.5 125 L 278.5 127 L 276.5 129 L 274.5 128 Q 271.5 131 265.5 131 Q 262 129 263 122.5 L 267.5 120 L 285.5 117 L 293.5 114 Z " /><path fill="rgb(0,0,0)" stroke="rgb(0,0,0)" stroke-width="1" opacity="0" d="M 543.5 115 L 547 116 Q 548 122.9 546 126 L 528.5 125 L 527.5 126 L 517.5 126 L 514 123.5 Q 513.4 118.1 515 116 L 542.5 116 L 543.5 115 Z " /><path fill="rgb(0,0,0)" stroke="rgb(0,0,0)" stroke-width="1" opacity="0" d="M 445.5 117 L 448.5 117 L 474.5 126 L 478 128.5 L 476 137 L 471.5 137 L 445 128 L 444.5 126 L 443 126.5 L 442 123.5 L 445.5 117 Z " /><path fill="rgb(0,0,0)" stroke="rgb(0,0,0)" stroke-width="1" opacity="0" d="M 0.5 349 L 10 357.5 L 11 359.5 L 11 449.5 L 12 450.5 Q 10.9 457.9 5.5 461 L 0.5 465 L 0.5 349 Z " /><path fill="rgb(0,0,0)" stroke="rgb(0,0,0)" stroke-width="1" opacity="0" d="M 572.5 362 Q 598.8 360.7 609 375.5 L 618 393.5 L 619 414.5 Q 616.5 416 618 421.5 L 614 431.5 L 604.5 443 L 593.5 449 L 574.5 450 Q 558.1 446.9 550 435.5 Q 539.6 422.9 542 397.5 L 547 381.5 L 557.5 369 Q 563.4 363.9 572.5 362 Z " /><path fill="rgb(0,0,0)" stroke="rgb(0,0,0)" stroke-width="1" opacity="0" d="M 241 534 L 562.5 534 L 564 535.5 L 564 560.5 Q 561.2 562.3 563 568.5 L 563 570.5 L 564 572.5 L 564 584.5 L 564 586.5 L 563 593.5 L 564 594.5 L 564 732.5 L 563 733.5 L 562 746.5 Q 559.1 754.6 552.5 759 L 540.5 764 L 514.5 764 L 513 765.5 L 513 789.5 L 514 790.5 L 291.5 791 L 292 789.5 L 291 764 L 268.5 764 L 257 762 Q 258.1 759.3 255.5 760 Q 248.6 758.4 246 752.5 L 241 741.5 L 241 733.5 L 240 732.5 L 240 536.5 L 241 534 Z M 515 553 L 514 554 L 507 554 L 506 557 L 507 561 L 507 595 L 506 596 L 506 700 L 507 701 L 506 703 L 507 707 L 506 709 Q 505 713 507 715 L 507 745 L 506 746 L 507 754 L 509 755 L 551 755 L 553 753 L 553 733 L 554 732 L 554 561 L 553 554 L 516 554 L 515 553 Z M 291 556 L 287 558 L 251 565 L 245 569 L 278 705 L 278 707 L 281 714 L 289 754 L 292 756 L 315 750 L 328 748 L 330 746 L 336 745 L 336 741 L 332 730 L 326 699 L 323 690 L 323 686 L 321 682 L 319 668 L 316 661 L 316 656 Q 310 636 307 614 Q 304 606 303 597 L 301 595 L 301 590 L 299 586 L 296 567 L 293 558 L 291 556 Z M 448 563 L 447 566 L 448 674 L 448 676 L 447 678 L 448 679 L 448 757 L 451 758 L 493 758 L 495 756 L 494 687 L 494 685 L 495 683 L 495 567 L 494 566 L 494 563 L 448 563 Z " /><path fill="rgb(0,0,0)" stroke="rgb(0,0,0)" stroke-width="1" opacity="0" d="M 516.5 580 L 519.5 581 L 523.5 580 L 524.5 581 L 544 581 L 544 588.5 L 543.5 589 L 515 589 L 514 581 L 516.5 580 Z " /><path fill="rgb(0,0,0)" stroke="rgb(0,0,0)" stroke-width="1" opacity="0" d="M 289.5 583 L 292 584.5 L 294 591.5 L 289.5 594 L 280.5 595 L 262.5 600 L 260 597.5 L 259 592.5 L 260.5 591 L 267.5 590 L 270.5 588 L 274.5 588 L 289.5 583 Z " /><path fill="rgb(0,0,0)" stroke="rgb(0,0,0)" stroke-width="1" opacity="0" d="M 456.5 590 L 485.5 590 L 488 591 Q 489.6 593.1 489 598.5 L 487 602 L 459.5 602 L 456 601 L 455 595.5 L 455 593.5 L 456.5 590 Z " /><path fill="rgb(0,0,0)" stroke="rgb(0,0,0)" stroke-width="1" opacity="0" d="M 291.5 605 Q 296.9 603.1 296 606.5 L 298 611.5 L 292.5 615 L 288.5 615 L 274.5 619 L 272.5 619 L 265 620 L 264 612 L 291.5 605 Z " /><path fill="rgb(0,0,0)" stroke="rgb(0,0,0)" stroke-width="1" opacity="0" d="M 457.5 610 L 486.5 610 L 489 611 L 489 619.5 L 486.5 622 L 456.5 622 L 455 620.5 L 456 617.5 L 455 611 L 457.5 610 Z " /><path fill="rgb(201,143,133)" stroke="rgb(201,143,133)" stroke-width="1" opacity="0.8862745098039215" d="M 689.5 43 L 689 44.5 L 688.5 46 L 688 44.5 L 689.5 43 Z " /><path fill="rgb(201,143,133)" stroke="rgb(201,143,133)" stroke-width="1" opacity="0.8862745098039215" d="M 287.5 67 L 293 67 L 293 69.5 L 297 81.5 L 296.5 83 Q 299.9 82.1 298 87.5 L 302 101.5 L 302 106.5 L 307 124.5 L 311 146.5 L 313 148.5 Q 313.5 158.5 317 165.5 L 317 170.5 L 321 183.5 L 326 210.5 L 328 212.5 Q 325.5 214 329 215.5 L 332 233.5 L 336 247.5 L 336 254.5 L 331.5 257 L 327.5 257 L 296.5 266 L 291 266 L 283 234.5 L 283.5 233 Q 280.9 233.8 282 230.5 L 282.5 229 Q 279.5 229.9 281 225.5 L 276 207.5 L 276 203.5 L 274 199.5 L 270 178.5 L 268 174.5 Q 270.5 173 267 171.5 L 254 114.5 L 251 108.5 L 245 77.5 L 249.5 75 L 264.5 73 L 287.5 67 Z M 289 93 L 287 95 L 269 99 L 264 99 L 258 101 L 260 110 Q 273 106 291 104 L 294 102 L 292 95 Q 293 92 291 93 L 289 93 Z M 294 114 L 277 119 L 267 120 L 263 123 Q 262 129 266 131 Q 272 131 275 128 L 277 129 L 279 127 L 297 124 L 296 116 L 294 114 Z " /><path fill="rgb(201,143,133)" stroke="rgb(201,143,133)" stroke-width="1" opacity="0.8862745098039215" d="M 508.5 68 L 552.5 68 L 553 69.5 L 554 70.5 L 554 96.5 L 554 98.5 L 553 112.5 L 554 116.5 L 554 118.5 L 553 123.5 L 554 124.5 L 554 266.5 L 553 269 L 507.5 269 L 507 268.5 L 507 69.5 L 508.5 68 Z M 516 95 L 514 97 Q 513 103 515 105 L 546 106 L 547 105 L 547 97 L 546 95 L 516 95 Z M 543 115 L 542 116 L 515 116 Q 513 118 514 124 L 518 126 L 528 126 L 529 125 L 532 126 L 546 126 Q 548 123 547 116 L 543 115 Z " /><path fill="rgb(201,143,133)" stroke="rgb(201,143,133)" stroke-width="1" opacity="0.8862745098039215" d="M 514.5 553 L 515.5 554 L 553 554 L 554 560.5 L 554 731.5 L 553 732.5 L 553 752.5 L 550.5 755 L 508.5 755 L 507 753.5 L 506 745.5 L 507 744.5 L 507 714.5 Q 504.8 713.3 506 708.5 L 507 706.5 L 506 702.5 L 507 700.5 L 506 699.5 L 506 595.5 L 507 594.5 L 507 560.5 L 506 556.5 L 507 554 L 513.5 554 L 514.5 553 Z M 517 580 L 514 581 L 515 589 L 544 589 L 544 589 L 544 581 L 525 581 L 524 580 L 520 581 L 517 580 Z " /><path fill="rgb(140,83,72)" stroke="rgb(140,83,72)" stroke-width="1" opacity="0.9803921568627451" d="M 67 0 L 289.5 0 L 291 1.5 L 291 26.5 L 289.5 28 L 259.5 28 Q 249.3 30.8 244 38.5 L 240 50.5 L 240 275.5 L 241 278 L 564 278 L 564 57.5 L 560 41.5 L 552.5 33 L 542.5 28 L 516.5 28 L 513 27 L 513 1.5 L 514.5 0 L 737.5 0 L 739 1.5 L 739 26.5 Q 739 27.5 734.5 27 L 730.5 28 L 728.5 28 L 707.5 28 L 701 30 L 701 32 L 698 32 Q 699.1 34.7 696.5 34 L 691 42 Q 688.3 40.9 689 43.5 L 686 51.5 L 686 276.5 L 687.5 278 L 737.5 278 Q 740.2 276.8 738 275.5 L 738 236.5 L 739.5 235 L 742.5 234 L 761.5 234 L 763 235.5 L 763 305 L 631.5 305 L 630.5 306 L 610.5 306 L 605.5 305 L 604.5 306 L 586.5 306 L 585.5 305 L 533.5 305 L 529.5 306 L 528.5 305 L 487.5 305 L 486.5 306 L 460.5 306 L 459.5 305 L 425.5 305 L 424.5 306 L 366.5 306 L 365.5 305 L 41 305 L 41 235.5 L 42.5 234 L 64.5 234 L 65 236.5 L 66 238.5 L 66 240.5 L 66 276.5 L 67.5 278 L 115.5 278 L 118 275.5 L 118 196.5 L 117 194.5 L 118 192.5 L 117 191.5 L 117 109.5 Q 119.7 107.8 118 101.5 L 117 98.5 L 118 97.5 L 118 54.5 L 115 42.5 L 108.5 34 L 103.5 30 L 102 30.5 Q 102.8 27.9 99.5 29 L 93.5 27 L 67 27 Q 65.4 24.9 66 19.5 L 67 18.5 L 67 4.5 L 66 2.5 L 67 0 Z " /><path fill="rgb(140,83,72)" stroke="rgb(140,83,72)" stroke-width="1" opacity="0.9803921568627451" d="M 42.5 507 L 762.5 507 L 763 507.5 L 763 574.5 L 761.5 576 L 740.5 576 L 738 573.5 L 738 536.5 L 737 534 L 687.5 534 L 686 535.5 L 686 735.5 Q 689 749.5 698.5 757 L 710.5 763 L 737.5 763 L 739 764.5 L 739 785.5 L 740 788.5 L 739 791 L 514.5 791 L 513 789.5 L 513 765.5 L 514.5 764 L 540.5 764 L 544.5 763 Q 553.8 759.8 559 752.5 L 562 746.5 L 563 734.5 L 564 733.5 L 564 593.5 L 563 588.5 L 564 586.5 L 564 584.5 L 564 572.5 L 563 570.5 L 563 568.5 Q 561.5 563 564 561.5 L 564 535.5 L 562.5 534 L 241 534 L 240 536.5 L 240 732.5 L 243 747.5 L 252.5 759 L 255 759 Q 253.9 761.7 256.5 761 L 260.5 763 Q 266.8 761.3 268.5 764 L 291 764 L 292 789.5 L 290.5 791 L 67.5 791 L 66 789.5 L 66 764.5 L 67.5 763 L 95.5 763 L 102 761 L 102 759 L 105 759 Q 103.9 756.3 106.5 757 Q 115 751.5 117 739.5 L 117 535.5 L 115.5 534 L 67.5 534 L 66 535.5 L 66 574.5 L 64.5 576 L 41.5 576 L 40 574.5 L 40 509.5 L 42.5 507 Z " /><path fill="rgb(140,83,72)" stroke="rgb(140,83,72)" stroke-width="1" opacity="0.9803921568627451" d="M 448 563 L 493.5 563 L 494 565.5 L 495 566.5 L 495 682.5 L 494 684.5 L 494 686.5 L 495 755.5 L 492.5 758 L 450.5 758 L 448 757 L 448 678.5 L 447 677.5 L 448 676.5 L 448 631.5 L 447 630.5 L 447 565.5 L 448 563 Z M 457 590 L 455 594 L 455 596 L 456 601 L 460 602 L 487 602 L 489 599 Q 490 593 488 591 L 486 590 L 457 590 Z M 458 610 L 455 611 L 456 618 L 455 621 L 457 622 L 487 622 L 489 620 L 489 611 L 487 610 L 458 610 Z " /><path fill="rgb(64,35,29)" stroke="rgb(64,35,29)" stroke-width="1" opacity="0.9725490196078431" d="M 453.5 70 L 464.5 73 L 468.5 76 L 471.5 76 L 499 87 L 499 91.5 L 494 104.5 L 494 107.5 L 491 116.5 L 489 118.5 L 477 157.5 L 474 162.5 Q 476.5 164 473 165.5 L 464 197.5 L 457 214.5 L 448 248.5 L 441 268 L 431.5 266 L 406.5 254 L 403.5 254 L 397 251 L 397 245.5 Q 401 238.5 402 228.5 L 406 220.5 L 408 210.5 L 410 207.5 L 419 174.5 L 422 169.5 L 434 126.5 L 439 115.5 L 446 87.5 L 448 84.5 L 450 75.5 L 453.5 70 Z M 454 96 Q 449 98 450 106 L 453 108 L 483 117 Q 486 114 486 109 L 484 106 L 463 100 L 461 98 L 454 96 Z M 446 117 L 442 124 L 443 127 L 472 137 L 476 137 L 478 129 L 475 126 L 449 117 L 446 117 Z " /><path fill="rgb(64,35,29)" stroke="rgb(64,35,29)" stroke-width="1" opacity="0.9725490196078431" d="M 574.5 339 L 586.5 339 L 601.5 342 L 621.5 352 L 635 364.5 L 644 379.5 L 649 393.5 L 650 413.5 L 648 416.5 L 649 420.5 L 641 441.5 L 626.5 458 L 611.5 468 L 603.5 471 L 595.5 473 L 577.5 474 L 576.5 473 L 563.5 472 L 551.5 468 Q 537.8 461.2 528 450.5 Q 519.8 441.7 516 428.5 L 514 419.5 L 514 411.5 L 513 410.5 L 513 400.5 L 514 399.5 L 515 387.5 L 521 371.5 L 535.5 354 L 542.5 349 L 557.5 342 L 574.5 339 Z M 573 362 Q 563 364 558 369 L 547 382 L 542 398 Q 540 423 550 436 Q 558 447 575 450 L 594 449 L 605 443 L 614 432 L 618 422 Q 617 416 619 415 L 618 394 L 609 376 Q 599 361 573 362 Z " /><path fill="rgb(64,35,29)" stroke="rgb(64,35,29)" stroke-width="1" opacity="0.9725490196078431" d="M 398.5 340 L 402 344.5 L 402 368.5 Q 400.5 372.5 393.5 371 L 390 368.5 L 387.5 362 L 385.5 361 L 340.5 361 L 339 362.5 L 339 396.5 L 340.5 398 L 378.5 398 L 382.5 392 Q 389.3 390.3 391 393.5 L 391 423.5 L 389.5 425 Q 382.3 426.3 380 422.5 L 378.5 420 L 340.5 420 L 339 421.5 L 339 453.5 L 344.5 461 L 352 466.5 Q 352.8 472.8 351.5 473 L 300.5 473 Q 297.8 471.8 299 466.5 L 300 464 Q 306.3 462.2 310 456.5 L 311 454.5 L 311 359.5 L 303.5 351 Q 301.3 351.8 302 349.5 Q 299.7 348.3 301 343.5 L 303.5 341 L 397.5 341 L 398.5 340 Z " /><path fill="rgb(64,35,29)" stroke="rgb(64,35,29)" stroke-width="1" opacity="0.9725490196078431" d="M 421.5 340 L 469.5 340 L 470.5 341 L 497.5 341 L 499 342.5 Q 500.7 349.3 497.5 351 L 495.5 351 L 489 357.5 L 488 359.5 L 488 439.5 L 486 449.5 L 482 457.5 L 473.5 466 L 458.5 473 L 436.5 474 L 421.5 470 L 405 460 L 404 455.5 L 412.5 434 Q 417.3 433.3 418 436.5 Q 420.9 444.6 427.5 449 Q 434 453.5 446.5 452 Q 454.8 450.8 458 444.5 L 461 433.5 L 461 363.5 L 458.5 361 L 433.5 361 L 428 363 L 427 367 Q 421.6 368.5 420 365.5 L 420 341.5 L 421.5 340 Z " /><path fill="rgb(64,35,29)" stroke="rgb(64,35,29)" stroke-width="1" opacity="0.9725490196078431" d="M 749.5 340 L 778.5 340 L 780.5 341 L 781.5 340 L 791.5 340 Q 795.8 341.8 794 349.5 Q 793.3 351.8 789.5 351 L 773 363 L 769.5 368 Q 767.3 367.3 768 369.5 L 757.5 381 L 754 383.5 L 745 394.5 L 776 440.5 L 793.5 461 L 800 465.5 Q 800.8 471.8 799.5 472 L 761.5 472 L 760.5 473 L 751.5 473 L 749 472 L 748 467.5 Q 749.3 461.8 754 459.5 L 754 455.5 Q 741.8 440.7 733 422.5 L 725.5 414 L 711.5 428 L 708 429 L 707 432.5 L 707 451.5 L 710.5 459 L 718 464.5 L 719 471.5 L 717.5 473 L 669.5 473 L 667 472 Q 665.5 464.8 670.5 463 L 678 456.5 L 679 454.5 L 679 359.5 L 671.5 351 L 668 348.5 Q 667.2 342.7 670.5 341 L 717.5 341 L 720 343.5 Q 721.3 349.8 717.5 351 L 708 358.5 L 708 400.5 L 709.5 401 L 740 370.5 L 740 369 Q 742.7 370.1 742 367.5 L 752 357.5 L 752 354 L 746 351 L 745 344.5 L 747.5 341 L 749.5 340 Z " /><path fill="rgb(64,35,29)" stroke="rgb(64,35,29)" stroke-width="1" opacity="0.9725490196078431" d="M 19.5 341 L 47.5 341 L 48.5 342 Q 49.7 339.8 51 342.5 L 51 350.5 L 48.5 351 L 45.5 355 L 41 358.5 L 40 360.5 L 40 372.5 L 41 373.5 L 41 393.5 L 42.5 395 L 85.5 395 L 86.5 396 L 91.5 395 L 93.5 396 L 96 395 L 96 359.5 L 87.5 351 L 85 349.5 Q 83.5 342.5 87.5 341 L 134.5 341 L 136 342.5 Q 137.8 349.3 134.5 351 L 125 358.5 L 124 360.5 L 124 451.5 Q 126.1 459.4 132.5 463 L 136 464 L 137 469.5 L 136 473 L 85.5 473 Q 84.3 472.8 85 466.5 L 95 457.5 L 96 455.5 L 96 418.5 L 93.5 416 L 42.5 416 L 41 417.5 L 41 455.5 L 45.5 461 L 51 464 L 53 467.5 L 51 473 L 0.5 473 L 0 472.5 L 0 465.5 L 9 457.5 L 12 450.5 L 11 449.5 L 11 359.5 L 6.5 354 L 0 348.5 Q -0.6 343.4 2.5 342 L 18.5 342 L 19.5 341 Z " /><path fill="rgb(64,35,29)" stroke="rgb(64,35,29)" stroke-width="1" opacity="0.9725490196078431" d="M 154 341 L 201.5 341 L 202 342.5 Q 204.5 344 203 349.5 L 192 358.5 L 192 431.5 Q 195.8 441.2 203.5 447 L 213.5 451 L 226.5 451 Q 237.8 448.8 244 441.5 Q 248.7 436.7 250 428.5 L 250 359.5 Q 245.9 353.1 239 351 L 239 342.5 L 240.5 341 L 280.5 341 L 281 343.5 L 282 348.5 L 270 358.5 L 269 360.5 L 269 434.5 L 265 449.5 L 255.5 462 L 247.5 468 L 237.5 472 L 226.5 474 L 213.5 474 L 194.5 470 L 177 457.5 L 170 447.5 L 163 430.5 L 162 425.5 L 162 361.5 Q 160.3 354.3 154 351.5 L 153 343.5 L 154 341 Z " /><path fill="rgb(64,35,29)" stroke="rgb(64,35,29)" stroke-width="1" opacity="0.9725490196078431" d="M 290.5 556 L 293 557.5 L 296 566.5 L 299 585.5 L 301 589.5 L 301 594.5 L 303 596.5 Q 303.5 606.5 307 613.5 Q 310 636 316 655.5 L 316 660.5 L 319 667.5 L 321 681.5 L 323 685.5 L 323 689.5 L 326 698.5 L 332 729.5 L 336 740.5 L 336 745 L 329.5 746 L 327.5 748 L 314.5 750 L 291.5 756 L 289 753.5 L 281 713.5 L 278 706.5 L 278 704.5 L 245 568.5 L 250.5 565 L 286.5 558 L 290.5 556 Z M 290 583 L 275 588 L 271 588 L 268 590 L 261 591 L 259 593 L 260 598 L 263 600 L 281 595 L 290 594 L 294 592 L 292 585 L 290 583 Z M 292 605 L 264 612 L 265 620 L 271 620 L 289 615 L 293 615 L 298 612 L 296 607 Q 297 603 292 605 Z " /></svg>